<svg id="Layer_1" data-name="Layer 1" xmlns="http://www.w3.org/2000/svg" viewBox="0 0 986.541 198.695"><defs><style>.cls-1{fill:#fb7603;}.cls-2{fill:#f47621;}.cls-3{fill:#fe8a00;opacity:0.8;}.cls-4{fill:#f7931e;}</style></defs><title>Logo_3</title><path class="cls-1" d="M-94,122.5" transform="translate(-24.534 -22.811)"/><path class="cls-2" d="M225.337,73.605c1.659,0,3.555.1,5.7.312s4.249.485,6.321.829,3.972.692,5.7,1.036a35.379,35.379,0,0,1,3.834.933L243.58,93.508a65.77,65.77,0,0,0-7.566-1.97,66.58,66.58,0,0,0-13.58-1.14,50.7,50.7,0,0,0-10.677,1.14q-5.288,1.145-6.946,1.556v90.6H185.529V80.448a130.809,130.809,0,0,1,17-4.666A109.165,109.165,0,0,1,225.337,73.605Z" transform="translate(-24.534 -22.811)"/><path class="cls-2" d="M300.382,73.19q11.613,0,19.595,3.007a31.831,31.831,0,0,1,12.853,8.5,32.263,32.263,0,0,1,6.946,13.062,63.217,63.217,0,0,1,2.073,16.69v67.38q-2.488.417-6.947,1.14t-10.054,1.347q-5.6.621-12.127,1.141t-12.958.518a70.981,70.981,0,0,1-16.795-1.866A37.553,37.553,0,0,1,269.7,178.2a27.088,27.088,0,0,1-8.709-10.679,37.38,37.38,0,0,1-3.108-15.963,30.735,30.735,0,0,1,3.627-15.341,28.9,28.9,0,0,1,9.849-10.367,45.7,45.7,0,0,1,14.512-5.8,79.1,79.1,0,0,1,17.414-1.865q2.9,0,6.015.31t5.907.83q2.8.519,4.874.932t2.9.623v-5.391a43.419,43.419,0,0,0-1.036-9.432,21.663,21.663,0,0,0-3.731-8.294,18.939,18.939,0,0,0-7.36-5.8q-4.666-2.178-12.13-2.178a91.2,91.2,0,0,0-16.688,1.348,58.709,58.709,0,0,0-10.677,2.8l-2.281-15.965q3.734-1.656,12.44-3.212A107.284,107.284,0,0,1,300.382,73.19Zm1.662,96.612q6.837,0,12.127-.311a52.693,52.693,0,0,0,8.81-1.14V136.217a24.777,24.777,0,0,0-6.738-1.763,75.141,75.141,0,0,0-11.3-.726,73.085,73.085,0,0,0-9.224.622,28.509,28.509,0,0,0-8.915,2.592,19.051,19.051,0,0,0-6.737,5.391,14.141,14.141,0,0,0-2.7,9.018q0,10.368,6.637,14.409T302.044,169.8Z" transform="translate(-24.534 -22.811)"/><path class="cls-2" d="M415.861,22.811a74.32,74.32,0,0,1,14.616,1.245,52.4,52.4,0,0,1,8.6,2.28l-3.522,16.586a35.949,35.949,0,0,0-7.05-2.385,47.031,47.031,0,0,0-11.195-1.14q-13.479,0-18.865,7.36t-5.392,19.8v9.33h41.463v16.17H393.054v91.637H373.772V66.141q0-20.729,10.159-32.031T415.861,22.811Z" transform="translate(-24.534 -22.811)"/><path class="cls-2" d="M471.833,75.886h40.844v16.17H471.833v49.759a59.927,59.927,0,0,0,1.244,13.371,20.112,20.112,0,0,0,3.731,8.294,13.439,13.439,0,0,0,6.22,4.25,27.59,27.59,0,0,0,8.709,1.243q8.707,0,13.993-1.97t7.36-2.8l3.731,15.964a71.426,71.426,0,0,1-10.159,3.628,57.8,57.8,0,0,1-16.584,2.177q-10.99,0-18.141-2.8a26.43,26.43,0,0,1-11.5-8.4,33.59,33.59,0,0,1-6.118-13.787,90.811,90.811,0,0,1-1.76-18.97v-96.2l19.279-3.316Z" transform="translate(-24.534 -22.811)"/><path class="cls-2" d="M562.223,169.8q11.819,0,17.519-3.11t5.7-9.95a13.224,13.224,0,0,0-5.6-11.2q-5.6-4.144-18.451-9.328-6.222-2.49-11.922-5.079a41.672,41.672,0,0,1-9.849-6.117,26.651,26.651,0,0,1-6.634-8.5,27.164,27.164,0,0,1-2.486-12.231q0-14.306,10.573-22.7t28.818-8.4a81.564,81.564,0,0,1,9.12.518q4.56.521,8.5,1.245t6.947,1.555q3,.831,4.665,1.45L595.6,94.544a48.9,48.9,0,0,0-9.745-3.42A62.951,62.951,0,0,0,569.9,89.362a29.5,29.5,0,0,0-14.1,3.212,10.655,10.655,0,0,0-6.014,10.057,13.7,13.7,0,0,0,1.349,6.219,14.3,14.3,0,0,0,4.147,4.871,33.989,33.989,0,0,0,6.943,4.044q4.145,1.866,9.954,3.939,7.663,2.906,13.681,5.7a42.823,42.823,0,0,1,10.263,6.531,25.1,25.1,0,0,1,6.532,9.019,32.733,32.733,0,0,1,2.278,12.958q0,14.925-11.091,22.6t-31.617,7.672q-14.3,0-22.39-2.384t-10.986-3.628l3.522-16.587q3.313,1.245,10.576,3.732T562.223,169.8Z" transform="translate(-24.534 -22.811)"/><path class="cls-2" d="M629.605,79q6.631-1.657,17.519-3.525a150.653,150.653,0,0,1,25.189-1.866q10.365,0,17.414,2.8a30.586,30.586,0,0,1,11.818,8.19c.964-.691,2.489-1.659,4.561-2.9a50.383,50.383,0,0,1,7.67-3.628,81.161,81.161,0,0,1,10.159-3.11,51.31,51.31,0,0,1,12.025-1.348q12.438,0,20.318,3.628A29.223,29.223,0,0,1,768.616,87.5a39.909,39.909,0,0,1,6.009,15.757,118.792,118.792,0,0,1,1.554,19.9v60.538H756.9V127.3a123.71,123.71,0,0,0-.935-16.378,31.746,31.746,0,0,0-3.525-11.4,16.164,16.164,0,0,0-7.05-6.738,26.283,26.283,0,0,0-11.5-2.178q-9.75,0-16.069,2.592t-8.6,4.665a71.133,71.133,0,0,1,2.49,11.818,105.864,105.864,0,0,1,.83,13.475v60.538H693.253V127.3a111.653,111.653,0,0,0-1.037-16.378,33.112,33.112,0,0,0-3.629-11.4,16.189,16.189,0,0,0-7.047-6.738,25.724,25.724,0,0,0-11.3-2.178q-2.907,0-6.219.208t-6.324.518q-3.01.31-5.494.725c-1.658.279-2.766.487-3.317.623v91.014H629.605Z" transform="translate(-24.534 -22.811)"/><path class="cls-2" d="M802.094,130q0-14.307,4.148-24.983a52.21,52.21,0,0,1,10.986-17.726,44.687,44.687,0,0,1,15.757-10.573A49.235,49.235,0,0,1,851.23,73.19q21.768,0,33.38,13.58t11.609,41.36v3.215a30.2,30.2,0,0,1-.206,3.628H822.207q1.24,16.792,9.742,25.5t26.537,8.709a70.686,70.686,0,0,0,17.105-1.762A61.442,61.442,0,0,0,886.06,164l2.694,16.171q-3.524,1.864-12.335,3.939a87.732,87.732,0,0,1-20,2.073q-14.1,0-24.361-4.25a45.419,45.419,0,0,1-16.9-11.714,47.759,47.759,0,0,1-9.846-17.725A74.822,74.822,0,0,1,802.094,130Zm74.015-10.574q.205-13.061-6.532-21.458t-18.555-8.4a25.423,25.423,0,0,0-11.713,2.592A27.625,27.625,0,0,0,830.7,98.9a31.061,31.061,0,0,0-5.493,9.537,46.91,46.91,0,0,0-2.591,10.988Z" transform="translate(-24.534 -22.811)"/><path class="cls-2" d="M924,79q6.632-1.657,17.62-3.525a152.546,152.546,0,0,1,25.293-1.866q12.853,0,21.354,3.628a33.436,33.436,0,0,1,13.58,10.159A39.343,39.343,0,0,1,1009,103.044a91.041,91.041,0,0,1,2.073,20.111v60.538H991.793V127.3a92.263,92.263,0,0,0-1.346-17,28.832,28.832,0,0,0-4.457-11.4,17.677,17.677,0,0,0-8.295-6.324,36.486,36.486,0,0,0-12.853-1.969q-3.109,0-6.429.208t-6.321.518q-3.009.31-5.392.725t-3.421.623v91.014H924Z" transform="translate(-24.534 -22.811)"/><path class="cls-1" d="M119.155,185.919a56.427,56.427,0,1,1,39.873-96.354l-13.954,13.97a36.688,36.688,0,1,0,0,51.883l13.954,13.968A55.992,55.992,0,0,1,119.155,185.919Z" transform="translate(-24.534 -22.811)"/><circle class="cls-3" cx="115.437" cy="30.799" r="9.224"/><path class="cls-4" d="M146.9,195.91a72,72,0,0,1-83.091-14.181A74.227,74.227,0,0,1,63.8,77.7,71.67,71.67,0,0,1,115.16,56.186c1.412,0,2.815.051,4.213.132,2.448-6.319,4.483-12.719,6.913-17.661a90.967,90.967,0,0,0-11.123-.685A89.439,89.439,0,0,0,51.08,64.809a92.619,92.619,0,0,0,0,129.811A89.833,89.833,0,0,0,160,209.523C155.667,205.226,151.107,200.82,146.9,195.91Z" transform="translate(-24.534 -22.811)"/></svg>